<svg xmlns="http://www.w3.org/2000/svg" viewBox="0 0 512 512">
  <defs>
    <linearGradient id="bg" x1="0%" y1="0%" x2="100%" y2="100%">
      <stop offset="0%" style="stop-color:#8B5CF6"/>
      <stop offset="100%" style="stop-color:#6366F1"/>
    </linearGradient>
  </defs>
  <!-- Background -->
  <rect width="512" height="512" rx="96" fill="url(#bg)"/>
  <!-- Card shape -->
  <rect x="136" y="96" width="240" height="320" rx="24" fill="white" opacity="0.95"/>
  <!-- Card shadow -->
  <rect x="156" y="116" width="200" height="280" rx="16" fill="#E0E7FF" opacity="0.5"/>
  <!-- Heart icon -->
  <path d="M256 280c-40-60-80-80-100-60s-20 60 20 100c20 20 60 60 80 80 20-20 60-60 80-80 40-40 40-80 20-100s-60 0-100 60z" fill="#EF4444"/>
  <!-- Speech bubbles hint -->
  <circle cx="200" cy="200" r="24" fill="#C4B5FD"/>
  <circle cx="312" cy="200" r="24" fill="#C4B5FD"/>
  <circle cx="256" cy="250" r="16" fill="#A78BFA"/>
</svg>
